<svg xmlns="http://www.w3.org/2000/svg" viewBox="0 0 755.5742 652.116"><defs><style>.cls-1{fill:#ff7f14;}.cls-2{fill:#fff;}</style></defs><title>Asset 2</title><g id="Layer_2" data-name="Layer 2"><g id="SouthPine_Logotype" data-name="SouthPine Logotype"><g id="Soluções_Digitais" data-name="Soluções Digitais"><path class="cls-1" d="M99.5352,640.5476a15.6668,15.6668,0,0,1-5.7364-2.9277l2.16-4.8487a16.9749,16.9749,0,0,0,5.0644,2.6641,18.3954,18.3954,0,0,0,6.0235,1.0322,10.4,10.4,0,0,0,5.5918-1.2,3.6329,3.6329,0,0,0,1.8486-3.1679,3.0693,3.0693,0,0,0-1.0322-2.376,7.2523,7.2523,0,0,0-2.6162-1.4639q-1.5836-.5274-4.3194-1.2a50.3659,50.3659,0,0,1-6.2168-1.8232,10.2344,10.2344,0,0,1-4.08-2.8565,7.6932,7.6932,0,0,1-1.7032-5.2558,8.97,8.97,0,0,1,1.5118-5.0645,10.2336,10.2336,0,0,1,4.56-3.624,18.4819,18.4819,0,0,1,7.4639-1.3438,24.1374,24.1374,0,0,1,6.0488.7686,16.6987,16.6987,0,0,1,5.1358,2.208l-1.9678,4.8477a19.4321,19.4321,0,0,0-4.6084-1.9678,17.2332,17.2332,0,0,0-4.6563-.6729,9.7349,9.7349,0,0,0-5.4961,1.2481,3.8532,3.8532,0,0,0-1.8,3.3125,2.9915,2.9915,0,0,0,1.0323,2.3515,7.4345,7.4345,0,0,0,2.6162,1.4405q1.5834.5287,4.3193,1.2a45.5036,45.5036,0,0,1,6.1445,1.8,10.5272,10.5272,0,0,1,4.1036,2.8554,7.5309,7.5309,0,0,1,1.7041,5.1846,8.852,8.852,0,0,1-1.5118,5.04,10.2814,10.2814,0,0,1-4.5839,3.6,18.6575,18.6575,0,0,1-7.4883,1.3447A25.6565,25.6565,0,0,1,99.5352,640.5476Z" transform="translate(-3.9199)"/><path class="cls-1" d="M138.0557,639.42a16.5188,16.5188,0,0,1-6.4805-6.1924,17.8512,17.8512,0,0,1,0-17.7119,16.5156,16.5156,0,0,1,6.4805-6.1914,20.3358,20.3358,0,0,1,18.5273,0,16.5812,16.5812,0,0,1,6.4805,6.1679,17.9422,17.9422,0,0,1,0,17.76,16.5885,16.5885,0,0,1-6.4805,6.168,20.3366,20.3366,0,0,1-18.5273,0Zm15.3115-4.752a10.9472,10.9472,0,0,0,4.2246-4.2236,12.7767,12.7767,0,0,0,0-12.1446,10.9472,10.9472,0,0,0-4.2246-4.2236,12.8462,12.8462,0,0,0-12.0957,0,10.9338,10.9338,0,0,0-4.2246,4.2236,12.7767,12.7767,0,0,0,0,12.1446,10.9338,10.9338,0,0,0,4.2246,4.2236,12.8537,12.8537,0,0,0,12.0957,0Z" transform="translate(-3.9199)"/><path class="cls-1" d="M176.8389,607.572h6.24v28.3193h17.5684v5.28H176.8389Z" transform="translate(-3.9199)"/><path class="cls-1" d="M213.5117,637.74q-3.8892-3.9126-3.8887-11.208v-18.96h6.24v18.72q0,9.8892,8.5439,9.8877,8.4962,0,8.4961-9.8877v-18.72h6.1446v18.96q0,7.2963-3.8643,11.208t-10.8242,3.9121Q217.3985,641.6521,213.5117,637.74Z" transform="translate(-3.9199)"/><path class="cls-1" d="M258.9424,639.42a16.4518,16.4518,0,0,1-6.4317-6.168,18.02,18.02,0,0,1,.0235-17.76,16.6148,16.6148,0,0,1,6.456-6.1679,18.92,18.92,0,0,1,9.1924-2.2325,19.1793,19.1793,0,0,1,7.5362,1.4405,15.3721,15.3721,0,0,1,5.76,4.1758L277.4463,616.5a11.76,11.76,0,0,0-8.9756-3.9365,12.5881,12.5881,0,0,0-6.1924,1.5127,10.8979,10.8979,0,0,0-4.2724,4.1992,12.8714,12.8714,0,0,0,0,12.1924,10.8871,10.8871,0,0,0,4.2724,4.2,12.5876,12.5876,0,0,0,6.1924,1.5117,11.6934,11.6934,0,0,0,8.9756-3.9834l4.0322,3.84a15.3372,15.3372,0,0,1-5.7842,4.1758,19.3527,19.3527,0,0,1-7.56,1.44A18.9211,18.9211,0,0,1,258.9424,639.42Zm2.5195,11.6875,1.1045-2.8321a7.0107,7.0107,0,0,0,3.2637.7686q2.5444,0,2.5439-1.7285a1.3365,1.3365,0,0,0-.624-1.1514,3.4063,3.4063,0,0,0-1.92-.4326h-1.4873l1.2959-4.8955h3.2636l-.6718,2.6875a5.0347,5.0347,0,0,1,3.12,1.32,3.7251,3.7251,0,0,1,1.0557,2.7119,3.8663,3.8663,0,0,1-1.7764,3.3125,8.1209,8.1209,0,0,1-4.752,1.2481A9,9,0,0,1,261.4619,651.1072Z" transform="translate(-3.9199)"/><path class="cls-1" d="M297.99,639.42a16.5185,16.5185,0,0,1-6.48-6.1924,17.8512,17.8512,0,0,1,0-17.7119,16.5154,16.5154,0,0,1,6.48-6.1914,20.336,20.336,0,0,1,18.5274,0,16.5809,16.5809,0,0,1,6.48,6.1679,17.9415,17.9415,0,0,1,0,17.76,16.5882,16.5882,0,0,1-6.48,6.168,20.3368,20.3368,0,0,1-18.5274,0Zm15.3116-4.752a10.9472,10.9472,0,0,0,4.2246-4.2236,12.7775,12.7775,0,0,0,0-12.1446,10.9472,10.9472,0,0,0-4.2246-4.2236,12.8462,12.8462,0,0,0-12.0957,0,10.9347,10.9347,0,0,0-4.2247,4.2236,12.7775,12.7775,0,0,0,0,12.1446,10.9347,10.9347,0,0,0,4.2247,4.2236,12.8537,12.8537,0,0,0,12.0957,0Zm-4.68-30.3125a18.951,18.951,0,0,1-2.1846-1.4394,13.0948,13.0948,0,0,0-1.2715-.9366,1.8775,1.8775,0,0,0-.9844-.3115,2.0717,2.0717,0,0,0-1.6552.7676,3.3647,3.3647,0,0,0-.6963,2.1123h-3.2158a7.4219,7.4219,0,0,1,1.4638-4.68,4.55,4.55,0,0,1,3.72-1.7519,4.3363,4.3363,0,0,1,2.0878.4794,19.3344,19.3344,0,0,1,2.1846,1.44,12.8086,12.8086,0,0,0,1.2715.9355,1.8591,1.8591,0,0,0,.9844.3125,2.1255,2.1255,0,0,0,1.6552-.7207,3.082,3.082,0,0,0,.6963-2.0156h3.2159a7.4721,7.4721,0,0,1-1.4873,4.56,4.5093,4.5093,0,0,1-3.6963,1.7285A4.32,4.32,0,0,1,308.6221,604.3552Z" transform="translate(-3.9199)"/><path class="cls-1" d="M361.9736,635.9392v5.2324h-25.2v-33.6h24.5284v5.2315H343.0137V621.54h16.2236v5.1357H343.0137v9.2637Z" transform="translate(-3.9199)"/><path class="cls-1" d="M376.6377,640.5476a15.6663,15.6663,0,0,1-5.7363-2.9277l2.16-4.8487a16.9742,16.9742,0,0,0,5.0645,2.6641,18.3944,18.3944,0,0,0,6.0234,1.0322,10.4,10.4,0,0,0,5.5918-1.2,3.6329,3.6329,0,0,0,1.8486-3.1679,3.0693,3.0693,0,0,0-1.0322-2.376,7.2523,7.2523,0,0,0-2.6162-1.4639q-1.5836-.5274-4.3193-1.2a50.3606,50.3606,0,0,1-6.2168-1.8232,10.234,10.234,0,0,1-4.08-2.8565,7.6937,7.6937,0,0,1-1.7031-5.2558,8.9707,8.9707,0,0,1,1.5117-5.0645,10.2334,10.2334,0,0,1,4.56-3.624,18.4814,18.4814,0,0,1,7.4638-1.3438,24.1381,24.1381,0,0,1,6.0489.7686,16.6971,16.6971,0,0,1,5.1357,2.208l-1.9678,4.8477a19.43,19.43,0,0,0-4.6084-1.9678,17.2325,17.2325,0,0,0-4.6562-.6729,9.7346,9.7346,0,0,0-5.4961,1.2481,3.8532,3.8532,0,0,0-1.8,3.3125,2.9914,2.9914,0,0,0,1.0322,2.3515,7.4354,7.4354,0,0,0,2.6162,1.4405q1.5836.5287,4.3194,1.2a45.5123,45.5123,0,0,1,6.1445,1.8,10.5268,10.5268,0,0,1,4.1035,2.8554,7.5309,7.5309,0,0,1,1.7041,5.1846,8.8527,8.8527,0,0,1-1.5117,5.04,10.2817,10.2817,0,0,1-4.584,3.6,18.6572,18.6572,0,0,1-7.4883,1.3447A25.6565,25.6565,0,0,1,376.6377,640.5476Z" transform="translate(-3.9199)"/><path class="cls-1" d="M426.7725,607.572h14.6884a21.072,21.072,0,0,1,9.5518,2.0879,15.4516,15.4516,0,0,1,6.4805,5.9033,17.9905,17.9905,0,0,1,0,17.6162,15.459,15.459,0,0,1-6.4805,5.9043,21.085,21.085,0,0,1-9.5518,2.0879H426.7725Zm14.4,28.3193a14.2552,14.2552,0,0,0,6.5039-1.416,10.1293,10.1293,0,0,0,4.32-4.0312,12.9517,12.9517,0,0,0,0-12.1446,10.1382,10.1382,0,0,0-4.32-4.0322,14.2694,14.2694,0,0,0-6.5039-1.416h-8.16v23.04Z" transform="translate(-3.9199)"/><path class="cls-1" d="M471.22,607.572h6.24v33.6h-6.24Z" transform="translate(-3.9199)"/><path class="cls-1" d="M514.2754,623.988H520.18V637.38a18.7641,18.7641,0,0,1-6.0488,3.168,23.2256,23.2256,0,0,1-7.1036,1.1045,19.1515,19.1515,0,0,1-9.2636-2.2324,16.575,16.575,0,0,1-6.48-6.168,17.9415,17.9415,0,0,1,0-17.76,16.5331,16.5331,0,0,1,6.5039-6.1679,19.3954,19.3954,0,0,1,9.3359-2.2325,20.3983,20.3983,0,0,1,7.6807,1.3916,15.0928,15.0928,0,0,1,5.8076,4.08l-3.9355,3.8408a12.6255,12.6255,0,0,0-9.2647-3.8408,13.097,13.097,0,0,0-6.3115,1.4883,10.8474,10.8474,0,0,0-4.32,4.1758,12.02,12.02,0,0,0-1.56,6.1445,11.8255,11.8255,0,0,0,1.56,6.0479,11.17,11.17,0,0,0,4.32,4.2236,12.6555,12.6555,0,0,0,6.2637,1.5361,13.5229,13.5229,0,0,0,6.9121-1.7275Z" transform="translate(-3.9199)"/><path class="cls-1" d="M533.1865,607.572h6.24v33.6h-6.24Z" transform="translate(-3.9199)"/><path class="cls-1" d="M560.1143,612.8513H548.9785V607.572H577.49v5.2793H566.3545v28.32h-6.24Z" transform="translate(-3.9199)"/><path class="cls-1" d="M607.1064,633.3953h-16.8l-3.3115,7.7763h-6.4326l15.12-33.6h6.1445l15.168,33.6h-6.5283ZM605.043,628.5l-6.336-14.6884L592.4189,628.5Z" transform="translate(-3.9199)"/><path class="cls-1" d="M626.0654,607.572h6.24v33.6h-6.24Z" transform="translate(-3.9199)"/><path class="cls-1" d="M649.0811,640.5476a15.6668,15.6668,0,0,1-5.7364-2.9277l2.16-4.8487a16.9749,16.9749,0,0,0,5.0644,2.6641,18.395,18.395,0,0,0,6.0235,1.0322,10.4,10.4,0,0,0,5.5918-1.2,3.6329,3.6329,0,0,0,1.8486-3.1679,3.0693,3.0693,0,0,0-1.0322-2.376,7.2523,7.2523,0,0,0-2.6162-1.4639q-1.5836-.5274-4.3194-1.2a50.3659,50.3659,0,0,1-6.2168-1.8232,10.2337,10.2337,0,0,1-4.08-2.8565,7.6932,7.6932,0,0,1-1.7032-5.2558,8.9707,8.9707,0,0,1,1.5117-5.0645,10.2345,10.2345,0,0,1,4.56-3.624,18.4819,18.4819,0,0,1,7.4639-1.3438,24.1374,24.1374,0,0,1,6.0488.7686,16.6987,16.6987,0,0,1,5.1358,2.208l-1.9678,4.8477a19.4321,19.4321,0,0,0-4.6084-1.9678,17.2332,17.2332,0,0,0-4.6563-.6729,9.7349,9.7349,0,0,0-5.4961,1.2481,3.8532,3.8532,0,0,0-1.8,3.3125,2.9915,2.9915,0,0,0,1.0323,2.3515,7.4345,7.4345,0,0,0,2.6162,1.4405q1.5834.5287,4.3193,1.2a45.5036,45.5036,0,0,1,6.1445,1.8,10.5272,10.5272,0,0,1,4.1036,2.8554,7.5309,7.5309,0,0,1,1.7041,5.1846,8.852,8.852,0,0,1-1.5118,5.04,10.2814,10.2814,0,0,1-4.5839,3.6,18.6575,18.6575,0,0,1-7.4883,1.3447A25.6565,25.6565,0,0,1,649.0811,640.5476Z" transform="translate(-3.9199)"/></g><path class="cls-2" d="M21.35,572.6912q-10.85-3.1509-17.43-8.19l7.7-17.08a52.1947,52.1947,0,0,0,14.9795,7.42,56.2177,56.2177,0,0,0,17.36,2.8007q9.6606,0,14.28-2.87,4.62-2.8682,4.62-7.63a7.2957,7.2957,0,0,0-2.73-5.8105,20.73,20.73,0,0,0-7-3.71q-4.2715-1.3974-11.55-3.08a158.966,158.966,0,0,1-18.34-5.32,29.7638,29.7638,0,0,1-12.25-8.54q-5.1123-5.88-5.11-15.68a27.2792,27.2792,0,0,1,4.62-15.47q4.62-6.93,13.93-10.99t22.75-4.06a75.4427,75.4427,0,0,1,18.34,2.2392A54.2275,54.2275,0,0,1,81.2,483.1609l-7,17.22q-13.582-7.6977-27.16-7.7-9.5229,0-14.07,3.08a9.4018,9.4018,0,0,0-4.55,8.12q0,5.0406,5.25,7.49t16.03,4.83a160.0913,160.0913,0,0,1,18.34,5.32,30.3878,30.3878,0,0,1,12.25,8.3994q5.1094,5.7423,5.11,15.54a26.7655,26.7655,0,0,1-4.69,15.33q-4.692,6.93-14.07,10.99-9.3809,4.059-22.8193,4.06A80.19,80.19,0,0,1,21.35,572.6912Z" transform="translate(-3.9199)"/><path class="cls-2" d="M113.8887,570.3113a36.933,36.933,0,0,1-14.77-13.79,40.3332,40.3332,0,0,1,0-40.04,36.939,36.939,0,0,1,14.77-13.79,45.1716,45.1716,0,0,1,21.35-4.9708,44.7668,44.7668,0,0,1,21.28,4.9708,37.0878,37.0878,0,0,1,14.7,13.79,40.3338,40.3338,0,0,1,0,40.04,37.0817,37.0817,0,0,1-14.7,13.79,44.7558,44.7558,0,0,1-21.28,4.97A45.16,45.16,0,0,1,113.8887,570.3113Zm35.14-18.62q5.3877-5.67,5.39-15.19,0-9.5186-5.39-15.1894a18.1907,18.1907,0,0,0-13.79-5.67,18.4174,18.4174,0,0,0-13.86,5.67q-5.4594,5.669-5.46,15.1894,0,9.523,5.46,15.19a18.4214,18.4214,0,0,0,13.86,5.67A18.1945,18.1945,0,0,0,149.0283,551.6912Z" transform="translate(-3.9199)"/><path class="cls-2" d="M266.9775,498.8406v75.32h-20.72v-8.96a28.9679,28.9679,0,0,1-10.36,7.49,32.6131,32.6131,0,0,1-13.02,2.59q-14.8418,0-23.52-8.54-8.6822-8.5386-8.68-25.34V498.8406h21.84v39.34q0,18.2022,15.26,18.2,7.84,0,12.6006-5.1094,4.7578-5.1093,4.76-15.19v-37.24Z" transform="translate(-3.9199)"/><path class="cls-2" d="M335.8574,570.5212a22.424,22.424,0,0,1-7.91,3.5694,40.0717,40.0717,0,0,1-9.87,1.19q-13.44,0-20.79-6.86-7.3491-6.8568-7.35-20.16V517.321h-11.62v-16.8h11.62V482.18h21.84v18.3408h18.76v16.8h-18.76v30.66q0,4.7607,2.45,7.35a9.0684,9.0684,0,0,0,6.93,2.59,14.0338,14.0338,0,0,0,8.82-2.8Z" transform="translate(-3.9199)"/><path class="cls-2" d="M416.5664,506.1208q8.61,8.3994,8.61,24.92v43.12h-21.84v-39.76q0-8.9576-3.92-13.37-3.9214-4.4106-11.34-4.41-8.263,0-13.16,5.11-4.9029,5.1123-4.9,15.1894v37.24h-21.84V470.281h21.84V506.68a29.0445,29.0445,0,0,1,10.5-6.6494,37.9813,37.9813,0,0,1,13.44-2.3106Q407.9537,497.72,416.5664,506.1208Z" transform="translate(-3.9199)"/><path class="cls-2" d="M511.4863,480.5007a33.6107,33.6107,0,0,1,14.77,12.32,36.9436,36.9436,0,0,1,0,37.73,32.988,32.988,0,0,1-14.77,12.32q-9.5918,4.2731-22.61,4.27h-19.74v27.02h-22.68v-98h42.42Q501.8956,476.1609,511.4863,480.5007Zm-8.33,43.75q5.3187-4.4091,5.3193-12.53,0-8.2587-5.3193-12.67-5.3234-4.4091-15.54-4.4092H469.1357v34.02h18.4805Q497.8335,528.6609,503.1563,524.2507Z" transform="translate(-3.9199)"/><path class="cls-2" d="M547.1162,484.8406a11.8546,11.8546,0,0,1,0-17.3594,13.8561,13.8561,0,0,1,9.8-3.5,14.204,14.204,0,0,1,9.8,3.3594,10.7724,10.7724,0,0,1,3.78,8.4,11.8875,11.8875,0,0,1-3.78,9.03,13.6933,13.6933,0,0,1-9.8,3.5694A13.8477,13.8477,0,0,1,547.1162,484.8406Zm-1.12,14h21.84v75.32h-21.84Z" transform="translate(-3.9199)"/><path class="cls-2" d="M656.5254,506.1208q8.61,8.3994,8.61,24.92v43.12h-21.84v-39.76q0-8.9576-3.92-13.37-3.9214-4.4106-11.34-4.41-8.2632,0-13.16,5.11-4.9029,5.1123-4.9,15.1894v37.24h-21.84v-75.32h20.86v8.82a28.9663,28.9663,0,0,1,10.7793-7.35A37.5539,37.5539,0,0,1,633.916,497.72Q647.9127,497.72,656.5254,506.1208Z" transform="translate(-3.9199)"/><path class="cls-2" d="M759.0742,542.6609h-56.98a17.73,17.73,0,0,0,7.28,11.06q5.7393,4.0635,14.2793,4.0606a28.8908,28.8908,0,0,0,10.4307-1.75,25.2741,25.2741,0,0,0,8.47-5.53l11.62,12.6006q-10.6406,12.1787-31.08,12.18a49.1591,49.1591,0,0,1-22.54-4.97,36.4188,36.4188,0,0,1-15.12-13.79,37.98,37.98,0,0,1-5.3193-20.02,38.4991,38.4991,0,0,1,5.25-19.95,36.7778,36.7778,0,0,1,14.42-13.8593,44.6365,44.6365,0,0,1,40.5293-.21,34.7646,34.7646,0,0,1,14.07,13.6494,40.7153,40.7153,0,0,1,5.11,20.65Q759.4941,537.2015,759.0742,542.6609Zm-51.1006-24.22a17.8827,17.8827,0,0,0-6.16,11.4794h37.1006a18.069,18.069,0,0,0-6.16-11.41,18.4192,18.4192,0,0,0-12.32-4.2695A18.8072,18.8072,0,0,0,707.9736,518.4412Z" transform="translate(-3.9199)"/><g id="pine"><rect class="cls-1" x="343.7907" y="363.347" width="68.0008" height="62.5365" rx="11.6861"/><path class="cls-2" d="M496.9636,335.2986A15.2465,15.2465,0,0,1,481.712,350.55H282.2632a15.2465,15.2465,0,0,1-15.2517-15.2516,15.05,15.05,0,0,1,.5465-4.0436l33.43-80.7206a12.598,12.598,0,0,1-15.5309-15.5309l45.3966-99.7365a8.1844,8.1844,0,0,1-1.694.1761,8.1026,8.1026,0,0,1-8.0993-8.1055,15.27,15.27,0,0,1,.8014-3.5276L375.0964,3.8068a8.1407,8.1407,0,0,1,13.7823,0L442.1136,123.81a15.27,15.27,0,0,1,.8014,3.5276,8.1026,8.1026,0,0,1-8.0993,8.1055,8.1844,8.1844,0,0,1-1.694-.1761l45.3966,99.7365a12.5983,12.5983,0,0,1-15.5309,15.5309l33.43,80.7206A15.05,15.05,0,0,1,496.9636,335.2986Z" transform="translate(-3.9199)"/></g></g></g></svg>