<svg xmlns="http://www.w3.org/2000/svg" viewBox="0 0 883.894 220.085"><defs><style>.cls-1{fill:#ff7f14;}.cls-2{fill:#fff;}</style></defs><title>Asset 5</title><g id="Layer_2" data-name="Layer 2"><g id="SouthPine_Logotype_Horizontal" data-name="SouthPine Logotype Horizontal"><g id="Soluções_Digitais" data-name="Soluções Digitais"><path class="cls-1" d="M116.44,216.8691a18.3408,18.3408,0,0,1-6.711-3.4257l2.5274-5.6709a19.9011,19.9011,0,0,0,5.9238,3.1162,21.5159,21.5159,0,0,0,7.0469,1.207q4.38,0,6.542-1.4033a4.254,4.254,0,0,0,2.1621-3.7061,3.5942,3.5942,0,0,0-1.2071-2.78,8.4955,8.4955,0,0,0-3.0605-1.712q-1.8531-.6182-5.0537-1.4043a58.6886,58.6886,0,0,1-7.2715-2.1337,11.96,11.96,0,0,1-4.7734-3.3409,8.9991,8.9991,0,0,1-1.9932-6.1484,10.492,10.492,0,0,1,1.7685-5.9238,11.9728,11.9728,0,0,1,5.335-4.24,21.6325,21.6325,0,0,1,8.7315-1.5722,28.2676,28.2676,0,0,1,7.0751.8984,19.5769,19.5769,0,0,1,6.0079,2.583l-2.3018,5.6719a22.7845,22.7845,0,0,0-5.3906-2.3027,20.1914,20.1914,0,0,0-5.4473-.7862q-4.3242,0-6.4287,1.46a4.5056,4.5056,0,0,0-2.1064,3.875,3.5,3.5,0,0,0,1.208,2.751,8.6958,8.6958,0,0,0,3.06,1.6845q1.8531.6181,5.0537,1.4043a53.1252,53.1252,0,0,1,7.1875,2.1055,12.3042,12.3042,0,0,1,4.8008,3.3408,8.8072,8.8072,0,0,1,1.9942,6.0645,10.3538,10.3538,0,0,1-1.77,5.8965,12.0257,12.0257,0,0,1-5.3623,4.2109,21.8207,21.8207,0,0,1-8.76,1.5723A30.0008,30.0008,0,0,1,116.44,216.8691Z" transform="translate(-4.5859 -10.3164)"/><path class="cls-1" d="M161.501,215.5488a19.3322,19.3322,0,0,1-7.5811-7.2431,20.8825,20.8825,0,0,1,0-20.72,19.3354,19.3354,0,0,1,7.5811-7.2441,23.7943,23.7943,0,0,1,21.6748,0,19.4065,19.4065,0,0,1,7.58,7.2158,20.9833,20.9833,0,0,1,0,20.7764,19.397,19.397,0,0,1-7.58,7.2148,23.7935,23.7935,0,0,1-21.6748,0Zm17.9121-5.5586a12.7947,12.7947,0,0,0,4.9414-4.9414,14.9392,14.9392,0,0,0,0-14.207,12.7922,12.7922,0,0,0-4.9414-4.94,15.0288,15.0288,0,0,0-14.15,0,12.7922,12.7922,0,0,0-4.9414,4.94,14.9392,14.9392,0,0,0,0,14.207,12.7947,12.7947,0,0,0,4.9414,4.9414,15.0363,15.0363,0,0,0,14.15,0Z" transform="translate(-4.5859 -10.3164)"/><path class="cls-1" d="M206.8711,178.292h7.3v33.13h20.5518v6.1767H206.8711Z" transform="translate(-4.5859 -10.3164)"/><path class="cls-1" d="M249.7715,213.584q-4.5483-4.5762-4.5479-13.1113V178.292h7.3v21.8994q0,11.5679,9.9952,11.5674,9.9389,0,9.9384-11.5674V178.292h7.1875v22.1807q0,8.5356-4.52,13.1113-4.52,4.5776-12.6621,4.5762T249.7715,213.584Z" transform="translate(-4.5859 -10.3164)"/><path class="cls-1" d="M302.9189,215.5488a19.2419,19.2419,0,0,1-7.5244-7.2148,21.0806,21.0806,0,0,1,.0274-20.7764,19.4581,19.4581,0,0,1,7.5527-7.2158,22.1436,22.1436,0,0,1,10.7529-2.6113,22.4353,22.4353,0,0,1,8.8164,1.6845,17.9926,17.9926,0,0,1,6.7383,4.8858l-4.7168,4.4355a13.7624,13.7624,0,0,0-10.5009-4.6045,14.716,14.716,0,0,0-7.2432,1.77,12.74,12.74,0,0,0-4.9981,4.9131,15.05,15.05,0,0,0,0,14.2626,12.7465,12.7465,0,0,0,4.9981,4.9131,14.7262,14.7262,0,0,0,7.2432,1.7686,13.681,13.681,0,0,0,10.5009-4.66l4.7168,4.4922a17.9444,17.9444,0,0,1-6.7666,4.8848,22.6379,22.6379,0,0,1-8.8437,1.6846A22.1271,22.1271,0,0,1,302.9189,215.5488Zm2.9473,13.6729,1.292-3.3125a8.2025,8.2025,0,0,0,3.8184.8984q2.9751,0,2.9755-2.0215a1.564,1.564,0,0,0-.7294-1.3476,3.9886,3.9886,0,0,0-2.2461-.5059h-1.7412l1.5166-5.7265H314.57l-.7861,3.1435a5.8816,5.8816,0,0,1,3.6494,1.5449,4.3539,4.3539,0,0,1,1.2353,3.1719,4.5231,4.5231,0,0,1-2.0771,3.875,9.5012,9.5012,0,0,1-5.56,1.46A10.5389,10.5389,0,0,1,305.8662,229.2217Z" transform="translate(-4.5859 -10.3164)"/><path class="cls-1" d="M348.5977,215.5488a19.3316,19.3316,0,0,1-7.5811-7.2431,20.8825,20.8825,0,0,1,0-20.72,19.3347,19.3347,0,0,1,7.5811-7.2441,23.7943,23.7943,0,0,1,21.6748,0,19.4056,19.4056,0,0,1,7.58,7.2158,20.9826,20.9826,0,0,1,0,20.7764,19.3961,19.3961,0,0,1-7.58,7.2148,23.7935,23.7935,0,0,1-21.6748,0ZM366.51,209.99a12.7961,12.7961,0,0,0,4.9414-4.9414,14.94,14.94,0,0,0,0-14.207,12.7935,12.7935,0,0,0-4.9414-4.94,15.0288,15.0288,0,0,0-14.15,0,12.7922,12.7922,0,0,0-4.9414,4.94,14.9392,14.9392,0,0,0,0,14.207,12.7947,12.7947,0,0,0,4.9414,4.9414,15.0363,15.0363,0,0,0,14.15,0Zm-5.4746-35.46a22.2813,22.2813,0,0,1-2.5547-1.6846,15.1886,15.1886,0,0,0-1.4883-1.0947,2.1861,2.1861,0,0,0-1.1514-.3653,2.4207,2.4207,0,0,0-1.9365.8985,3.9393,3.9393,0,0,0-.8145,2.4707h-3.7627A8.6866,8.6866,0,0,1,351.04,169.28a5.3233,5.3233,0,0,1,4.3516-2.05,5.0722,5.0722,0,0,1,2.4434.5615,22.7208,22.7208,0,0,1,2.5546,1.6846,14.9347,14.9347,0,0,0,1.4883,1.0947,2.1748,2.1748,0,0,0,1.15.3652,2.49,2.49,0,0,0,1.9375-.8427,3.6182,3.6182,0,0,0,.8145-2.3584h3.7617a8.7453,8.7453,0,0,1-1.74,5.3349,5.2767,5.2767,0,0,1-4.3243,2.0215A5.0647,5.0647,0,0,1,361.0352,174.53Z" transform="translate(-4.5859 -10.3164)"/><path class="cls-1" d="M423.4473,211.4785v6.12H393.9678V178.292h28.6933v6.1211H401.2676v10.22h18.9795v6.0078H401.2676v10.8379Z" transform="translate(-4.5859 -10.3164)"/><path class="cls-1" d="M440.6025,216.8691a18.3411,18.3411,0,0,1-6.7109-3.4257l2.5273-5.6709a19.903,19.903,0,0,0,5.9239,3.1162,21.5153,21.5153,0,0,0,7.0468,1.207q4.38,0,6.542-1.4033a4.2539,4.2539,0,0,0,2.1622-3.7061,3.5942,3.5942,0,0,0-1.2071-2.78,8.4955,8.4955,0,0,0-3.0605-1.712q-1.8531-.6182-5.0537-1.4043a58.6834,58.6834,0,0,1-7.2715-2.1337,11.9615,11.9615,0,0,1-4.7735-3.3409,8.999,8.999,0,0,1-1.9931-6.1484,10.492,10.492,0,0,1,1.7685-5.9238,11.9728,11.9728,0,0,1,5.335-4.24,21.632,21.632,0,0,1,8.7314-1.5722,28.269,28.269,0,0,1,7.0752.8984,19.5763,19.5763,0,0,1,6.0078,2.583l-2.3017,5.6719a22.7845,22.7845,0,0,0-5.3906-2.3027,20.1914,20.1914,0,0,0-5.4473-.7862q-4.3242,0-6.4287,1.46a4.5057,4.5057,0,0,0-2.1065,3.875,3.5,3.5,0,0,0,1.208,2.751,8.6972,8.6972,0,0,0,3.06,1.6845q1.8531.6181,5.0537,1.4043a53.1252,53.1252,0,0,1,7.1875,2.1055,12.3042,12.3042,0,0,1,4.8008,3.3408,8.8072,8.8072,0,0,1,1.9942,6.0645,10.3538,10.3538,0,0,1-1.77,5.8965,12.0257,12.0257,0,0,1-5.3623,4.2109,21.8209,21.8209,0,0,1-8.76,1.5723A30.0018,30.0018,0,0,1,440.6025,216.8691Z" transform="translate(-4.5859 -10.3164)"/><path class="cls-1" d="M499.252,178.292h17.1826a24.6481,24.6481,0,0,1,11.1738,2.4434,18.0787,18.0787,0,0,1,7.5811,6.9062,21.0423,21.0423,0,0,1,0,20.6074,18.0818,18.0818,0,0,1-7.5811,6.9073,24.6621,24.6621,0,0,1-11.1738,2.4423H499.252Zm16.8457,33.13a16.6793,16.6793,0,0,0,7.6084-1.6563,11.8473,11.8473,0,0,0,5.0537-4.7168,15.15,15.15,0,0,0,0-14.207,11.8625,11.8625,0,0,0-5.0537-4.7158,16.6794,16.6794,0,0,0-7.6084-1.6572h-9.5459v26.9531Z" transform="translate(-4.5859 -10.3164)"/><path class="cls-1" d="M551.248,178.292h7.3v39.3066h-7.3Z" transform="translate(-4.5859 -10.3164)"/><path class="cls-1" d="M601.6152,197.4961h6.9063v15.667a21.9731,21.9731,0,0,1-7.0752,3.706,27.1666,27.1666,0,0,1-8.3106,1.2911,22.405,22.405,0,0,1-10.8369-2.6114,19.3927,19.3927,0,0,1-7.581-7.2148,20.9892,20.9892,0,0,1,0-20.7764,19.3546,19.3546,0,0,1,7.6093-7.2158,22.6963,22.6963,0,0,1,10.9209-2.6113,23.84,23.84,0,0,1,8.9844,1.6289,17.6449,17.6449,0,0,1,6.7949,4.7724l-4.6044,4.4922a14.7741,14.7741,0,0,0-10.8379-4.4922,15.3157,15.3157,0,0,0-7.3838,1.7412,12.6837,12.6837,0,0,0-5.0537,4.8848,14.0546,14.0546,0,0,0-1.8252,7.1875,13.83,13.83,0,0,0,1.8252,7.0752,13.0676,13.0676,0,0,0,5.0537,4.9414,14.8059,14.8059,0,0,0,7.3281,1.7969,15.8149,15.8149,0,0,0,8.0859-2.0215Z" transform="translate(-4.5859 -10.3164)"/><path class="cls-1" d="M623.7383,178.292h7.3v39.3066h-7.3Z" transform="translate(-4.5859 -10.3164)"/><path class="cls-1" d="M655.24,184.4688H642.2124V178.292h33.3545v6.1768H662.54v33.13h-7.3Z" transform="translate(-4.5859 -10.3164)"/><path class="cls-1" d="M710.2124,208.502H690.5591l-3.875,9.0966h-7.5235l17.6875-39.3066h7.1875L721.78,217.5986h-7.6367Zm-2.415-5.7276-7.4121-17.1826L693.03,202.7744Z" transform="translate(-4.5859 -10.3164)"/><path class="cls-1" d="M732.3921,178.292h7.3v39.3066h-7.3Z" transform="translate(-4.5859 -10.3164)"/><path class="cls-1" d="M759.3159,216.8691a18.34,18.34,0,0,1-6.7109-3.4257l2.5273-5.6709a19.903,19.903,0,0,0,5.9239,3.1162,21.5148,21.5148,0,0,0,7.0468,1.207q4.38,0,6.542-1.4033a4.254,4.254,0,0,0,2.1621-3.7061,3.5941,3.5941,0,0,0-1.207-2.78,8.4963,8.4963,0,0,0-3.0605-1.712q-1.8531-.6182-5.0538-1.4043a58.6864,58.6864,0,0,1-7.2714-2.1337,11.96,11.96,0,0,1-4.7735-3.3409,8.999,8.999,0,0,1-1.9931-6.1484,10.492,10.492,0,0,1,1.7685-5.9238,11.9723,11.9723,0,0,1,5.335-4.24,21.632,21.632,0,0,1,8.7314-1.5722,28.269,28.269,0,0,1,7.0752.8984,19.5763,19.5763,0,0,1,6.0078,2.583l-2.3017,5.6719a22.7852,22.7852,0,0,0-5.3907-2.3027,20.1907,20.1907,0,0,0-5.4472-.7862q-4.3242,0-6.4287,1.46a4.5057,4.5057,0,0,0-2.1065,3.875,3.5,3.5,0,0,0,1.208,2.751,8.6963,8.6963,0,0,0,3.06,1.6845q1.853.6181,5.0537,1.4043a53.134,53.134,0,0,1,7.1875,2.1055,12.3042,12.3042,0,0,1,4.8008,3.3408,8.8072,8.8072,0,0,1,1.9941,6.0645,10.3537,10.3537,0,0,1-1.7695,5.8965,12.0257,12.0257,0,0,1-5.3623,4.2109,21.8209,21.8209,0,0,1-8.76,1.5723A30.0018,30.0018,0,0,1,759.3159,216.8691Z" transform="translate(-4.5859 -10.3164)"/></g><path class="cls-2" d="M24.9756,137.4883q-12.6928-3.6855-20.39-9.5811l9.0079-19.98a61.0641,61.0641,0,0,0,17.5234,8.68,65.7542,65.7542,0,0,0,20.3086,3.2764q11.3,0,16.7051-3.3574T73.5352,107.6a8.5345,8.5345,0,0,0-3.1934-6.7969,24.2316,24.2316,0,0,0-8.1885-4.3408q-4.998-1.6347-13.5117-3.6025a186.3059,186.3059,0,0,1-21.4551-6.2237,34.8285,34.8285,0,0,1-14.33-9.99q-5.981-6.8788-5.9775-18.3428a31.9079,31.9079,0,0,1,5.4043-18.0976q5.4052-8.1064,16.2959-12.8565,10.89-4.7475,26.6133-4.749a88.2372,88.2372,0,0,1,21.4551,2.62A63.436,63.436,0,0,1,94.99,32.7529L86.8018,52.8975Q70.9141,43.893,55.0293,43.8906q-11.14,0-16.46,3.6026-5.3247,3.605-5.3222,9.499,0,5.8961,6.1416,8.7617,6.1405,2.8682,18.7519,5.65a187.4768,187.4768,0,0,1,21.4551,6.2236,35.5488,35.5488,0,0,1,14.33,9.8272q5.9766,6.7162,5.9775,18.1787a31.3082,31.3082,0,0,1-5.4863,17.9336q-5.4888,8.1064-16.46,12.8564-10.9731,4.7476-26.6953,4.7491A93.7706,93.7706,0,0,1,24.9756,137.4883Z" transform="translate(-4.5859 -10.3164)"/><path class="cls-2" d="M133.2305,134.7041a43.2023,43.2023,0,0,1-17.2793-16.1318,44.432,44.432,0,0,1-6.2227-23.42,44.4347,44.4347,0,0,1,6.2227-23.42,43.2223,43.2223,0,0,1,17.2793-16.1318,52.8418,52.8418,0,0,1,24.9756-5.8145A52.3628,52.3628,0,0,1,183.1,55.6006a43.39,43.39,0,0,1,17.1973,16.1318,44.4622,44.4622,0,0,1,6.2226,23.42,44.46,44.46,0,0,1-6.2226,23.42A43.37,43.37,0,0,1,183.1,134.7041a52.3394,52.3394,0,0,1-24.8935,5.8145A52.8181,52.8181,0,0,1,133.2305,134.7041Zm41.1074-21.7822q6.3032-6.6328,6.3057-17.77,0-11.1357-6.3057-17.7695a21.2817,21.2817,0,0,0-16.1318-6.6338,21.5444,21.5444,0,0,0-16.2139,6.6338q-6.3867,6.6328-6.3877,17.7695,0,11.1387,6.3877,17.77a21.5435,21.5435,0,0,0,16.2139,6.6328A21.2809,21.2809,0,0,0,174.3379,112.9219Z" transform="translate(-4.5859 -10.3164)"/><path class="cls-2" d="M312.3184,51.0967V139.208H288.0791V128.7266a33.8609,33.8609,0,0,1-12.1191,8.7617,38.1377,38.1377,0,0,1-15.2315,3.03q-17.3613,0-27.5137-9.99-10.1571-9.9888-10.1543-29.6435V51.0967h25.5489V97.1172q0,21.293,17.8515,21.291,9.17,0,14.74-5.9775,5.5648-5.9766,5.5683-17.77V51.0967Z" transform="translate(-4.5859 -10.3164)"/><path class="cls-2" d="M392.8955,134.95a26.22,26.22,0,0,1-9.2529,4.1758,46.8735,46.8735,0,0,1-11.5469,1.3926q-15.7221,0-24.32-8.0254-8.5986-8.0231-8.5986-23.584V72.7148H325.584V53.0615h13.5928V31.6074h25.55V53.0615h21.9453V72.7148H364.7266V108.582q0,5.5694,2.8652,8.5977,2.8638,3.0336,8.1074,3.03a16.4176,16.4176,0,0,0,10.3184-3.2754Z" transform="translate(-4.5859 -10.3164)"/><path class="cls-2" d="M487.3135,59.6123q10.0722,9.8277,10.0722,29.1523V139.208h-25.55V92.6953q0-10.4794-4.5849-15.6406-4.5879-5.1592-13.2666-5.1592-9.6651,0-15.3946,5.9785-5.7348,5.98-5.7324,17.77V139.208H407.3086V17.6855h25.5488V60.2676a33.9846,33.9846,0,0,1,12.2832-7.7793,44.4246,44.4246,0,0,1,15.7227-2.7022Q477.2388,49.7861,487.3135,59.6123Z" transform="translate(-4.5859 -10.3164)"/><path class="cls-2" d="M598.3525,29.6416a39.3223,39.3223,0,0,1,17.2784,14.4121q6.057,9.3354,6.0595,22.11a39.817,39.817,0,0,1-6.0595,22.0273,38.6016,38.6016,0,0,1-17.2784,14.4131q-11.2206,4.9965-26.45,4.9951H548.81V139.208H522.2783V24.5645h49.624Q587.1338,24.5645,598.3525,29.6416Zm-9.7451,51.18q6.2228-5.1577,6.2237-14.6572,0-9.6621-6.2237-14.8223-6.2256-5.1593-18.1787-5.1592H548.81V85.9805h21.6191Q582.3819,85.9805,588.6074,80.8213Z" transform="translate(-4.5859 -10.3164)"/><path class="cls-2" d="M640.0347,34.7188a13.2745,13.2745,0,0,1-4.4229-10.1543A13.2831,13.2831,0,0,1,640.0347,14.41a16.21,16.21,0,0,1,11.4638-4.0938q7.04,0,11.4649,3.9307a12.6038,12.6038,0,0,1,4.4219,9.8261,13.91,13.91,0,0,1-4.4219,10.5635,16.0219,16.0219,0,0,1-11.4649,4.1768Q644.4555,38.8135,640.0347,34.7188Zm-1.3106,16.3779h25.5488V139.208H638.7241Z" transform="translate(-4.5859 -10.3164)"/><path class="cls-2" d="M768.0239,59.6123q10.0723,9.8277,10.0723,29.1523V139.208h-25.55V92.6953q0-10.4794-4.585-15.6406-4.5879-5.1592-13.2666-5.1592-9.665,0-15.3945,5.9785-5.7348,5.98-5.7324,17.77V139.208H688.019V51.0967h24.4024V61.4141a33.9045,33.9045,0,0,1,12.6113-8.5977,43.9341,43.9341,0,0,1,16.541-3.03Q757.9492,49.7861,768.0239,59.6123Z" transform="translate(-4.5859 -10.3164)"/><path class="cls-2" d="M887.9888,102.3584H821.3325a20.7464,20.7464,0,0,0,8.5156,12.9385q6.7134,4.7519,16.7051,4.749a33.8054,33.8054,0,0,0,12.2022-2.0469,29.5739,29.5739,0,0,0,9.9082-6.4687L882.2573,126.27q-12.4482,14.2486-36.3584,14.2491-14.9048,0-26.3681-5.8145a42.5987,42.5987,0,0,1-17.6885-16.1318,44.432,44.432,0,0,1-6.2227-23.42,45.03,45.03,0,0,1,6.1416-23.3378,43.0247,43.0247,0,0,1,16.8682-16.2139,52.2265,52.2265,0,0,1,47.4141-.2461,40.6763,40.6763,0,0,1,16.4589,15.9678Q888.479,81.7256,888.48,95.48,888.48,95.9716,887.9888,102.3584ZM828.21,74.0254a20.918,20.918,0,0,0-7.206,13.43h43.4014a21.1446,21.1446,0,0,0-7.2071-13.3487,21.5464,21.5464,0,0,0-14.4121-4.9951A21.9968,21.9968,0,0,0,828.21,74.0254Z" transform="translate(-4.5859 -10.3164)"/></g></g></svg>