<svg xmlns="http://www.w3.org/2000/svg" viewBox="0 0 378.74 701.0507"><defs><style>.cls-1{fill:#ff7f14;}.cls-2{fill:#fff;}</style></defs><title>Asset 1</title><g id="Layer_2" data-name="Layer 2"><g id="SouthPine_Logomark" data-name="SouthPine Logomark"><g id="pine"><rect class="cls-1" x="133.5878" y="598.1596" width="111.5644" height="102.8911" rx="19.2475"/><path class="cls-2" d="M378.74,552.25a25.1115,25.1115,0,0,1-25.12,25.12H25.12A25.1115,25.1115,0,0,1,0,552.25a24.7862,24.7862,0,0,1,.9-6.66L55.96,412.64a20.75,20.75,0,0,1-25.58-25.58l74.77-164.27a13.3613,13.3613,0,0,1-16.13-13.06,25.15,25.15,0,0,1,1.32-5.81L178.02,6.27a13.4079,13.4079,0,0,1,22.7,0L288.4,203.92a25.15,25.15,0,0,1,1.32,5.81,13.3613,13.3613,0,0,1-16.13,13.06l74.77,164.27a20.75,20.75,0,0,1-25.58,25.58l55.06,132.95A24.7862,24.7862,0,0,1,378.74,552.25Z"/></g></g></g></svg>