<svg xmlns="http://www.w3.org/2000/svg" viewBox="0 0 1187.3099 425.8835"><defs><style>.cls-1{fill:#ff7f14;}.cls-2{fill:#fff;}</style></defs><title>Asset 3</title><g id="Layer_2" data-name="Layer 2"><g id="SouthPine_Logotype_Horizontal" data-name="SouthPine Logotype Horizontal"><g id="Soluções_Digitais" data-name="Soluções Digitais"><path class="cls-1" d="M415.27,351.5566a18.3389,18.3389,0,0,1-6.7109-3.4258l2.5273-5.6709a19.9013,19.9013,0,0,0,5.9238,3.1162,21.5134,21.5134,0,0,0,7.0469,1.2071q4.38,0,6.542-1.4034a4.2538,4.2538,0,0,0,2.1621-3.706,3.5943,3.5943,0,0,0-1.207-2.78,8.4943,8.4943,0,0,0-3.0606-1.7119q-1.853-.6182-5.0537-1.4043a58.6918,58.6918,0,0,1-7.2715-2.1338,11.96,11.96,0,0,1-4.7734-3.3408,8.9991,8.9991,0,0,1-1.9932-6.1484A10.4925,10.4925,0,0,1,411.17,318.23a11.9721,11.9721,0,0,1,5.335-4.24,21.63,21.63,0,0,1,8.7314-1.5723,28.2644,28.2644,0,0,1,7.0752.8985,19.575,19.575,0,0,1,6.0078,2.583l-2.3017,5.6718a22.7935,22.7935,0,0,0-5.3907-2.3027,20.1944,20.1944,0,0,0-5.4472-.7861q-4.3242,0-6.4287,1.46a4.506,4.506,0,0,0-2.1065,3.875,3.5,3.5,0,0,0,1.208,2.751,8.6965,8.6965,0,0,0,3.06,1.6846q1.853.6182,5.0537,1.4043a53.1194,53.1194,0,0,1,7.1875,2.1055,12.3032,12.3032,0,0,1,4.8008,3.3408,8.8069,8.8069,0,0,1,1.9941,6.0644,10.3535,10.3535,0,0,1-1.77,5.8965,12.0243,12.0243,0,0,1-5.3623,4.2109,21.8191,21.8191,0,0,1-8.76,1.5723A30.0018,30.0018,0,0,1,415.27,351.5566Z"/><path class="cls-1" d="M460.3313,350.2363a19.3322,19.3322,0,0,1-7.581-7.2432,20.8823,20.8823,0,0,1,0-20.72,19.3344,19.3344,0,0,1,7.581-7.2441,23.7935,23.7935,0,0,1,21.6748,0,19.4052,19.4052,0,0,1,7.58,7.2158,20.9824,20.9824,0,0,1,0,20.7763,19.3959,19.3959,0,0,1-7.58,7.2149,23.7943,23.7943,0,0,1-21.6748,0Zm17.9121-5.5586a12.7963,12.7963,0,0,0,4.9415-4.9414,14.94,14.94,0,0,0,0-14.207,12.7933,12.7933,0,0,0-4.9415-4.94,15.0294,15.0294,0,0,0-14.15,0,12.7933,12.7933,0,0,0-4.9415,4.94,14.94,14.94,0,0,0,0,14.207,12.7963,12.7963,0,0,0,4.9415,4.9414,15.0369,15.0369,0,0,0,14.15,0Z"/><path class="cls-1" d="M505.7015,312.98h7.3v33.13H533.553v6.1768H505.7015Z"/><path class="cls-1" d="M548.6018,348.2714q-4.5483-4.5761-4.5478-13.1113V312.98h7.3v21.8994q0,11.5679,9.9951,11.5673,9.939,0,9.9385-11.5673V312.98h7.1875V335.16q0,8.5356-4.5205,13.1113-4.5205,4.5777-12.6621,4.5762T548.6018,348.2714Z"/><path class="cls-1" d="M601.7493,350.2363a19.24,19.24,0,0,1-7.5244-7.2149,21.0807,21.0807,0,0,1,.0273-20.7763,19.4577,19.4577,0,0,1,7.5528-7.2158,22.142,22.142,0,0,1,10.7529-2.6114,22.436,22.436,0,0,1,8.8164,1.6846,17.9939,17.9939,0,0,1,6.7383,4.8857l-4.7168,4.4356a13.7621,13.7621,0,0,0-10.501-4.6045,14.7162,14.7162,0,0,0-7.2432,1.7695,12.74,12.74,0,0,0-4.998,4.9131,15.05,15.05,0,0,0,0,14.2627,12.7462,12.7462,0,0,0,4.998,4.9131,14.7265,14.7265,0,0,0,7.2432,1.7685,13.6813,13.6813,0,0,0,10.501-4.66l4.7168,4.4922a17.9438,17.9438,0,0,1-6.7666,4.8847,22.6366,22.6366,0,0,1-8.8438,1.6846A22.1269,22.1269,0,0,1,601.7493,350.2363Zm2.9473,13.6728,1.292-3.3125a8.2009,8.2009,0,0,0,3.8183.8985q2.9751,0,2.9756-2.0215a1.5642,1.5642,0,0,0-.73-1.3477,3.9884,3.9884,0,0,0-2.2461-.5058h-1.7412l1.5166-5.7266h3.8184l-.7862,3.1436a5.8816,5.8816,0,0,1,3.6495,1.5449,4.3539,4.3539,0,0,1,1.2353,3.1719,4.5235,4.5235,0,0,1-2.0771,3.875,9.5022,9.5022,0,0,1-5.56,1.46A10.5376,10.5376,0,0,1,604.6966,363.9091Z"/><path class="cls-1" d="M647.428,350.2363a19.3316,19.3316,0,0,1-7.581-7.2432,20.8823,20.8823,0,0,1,0-20.72,19.3338,19.3338,0,0,1,7.581-7.2441,23.7935,23.7935,0,0,1,21.6748,0,19.4052,19.4052,0,0,1,7.58,7.2158,20.9824,20.9824,0,0,1,0,20.7763,19.3959,19.3959,0,0,1-7.58,7.2149,23.7943,23.7943,0,0,1-21.6748,0Zm17.9121-5.5586a12.7954,12.7954,0,0,0,4.9414-4.9414,14.9392,14.9392,0,0,0,0-14.207,12.7924,12.7924,0,0,0-4.9414-4.94,15.03,15.03,0,0,0-14.15,0,12.7938,12.7938,0,0,0-4.9414,4.94,14.94,14.94,0,0,0,0,14.207,12.7967,12.7967,0,0,0,4.9414,4.9414,15.0371,15.0371,0,0,0,14.15,0Zm-5.4746-35.46a22.2959,22.2959,0,0,1-2.5547-1.6845,15.18,15.18,0,0,0-1.4883-1.0948,2.1863,2.1863,0,0,0-1.1513-.3652,2.4206,2.4206,0,0,0-1.9365.8984,3.9389,3.9389,0,0,0-.8145,2.4707h-3.7627a8.686,8.686,0,0,1,1.7129-5.4746,5.3232,5.3232,0,0,1,4.3516-2.05,5.07,5.07,0,0,1,2.4433.5616,22.7317,22.7317,0,0,1,2.5547,1.6845,14.8954,14.8954,0,0,0,1.4883,1.0947,2.1741,2.1741,0,0,0,1.15.3653,2.49,2.49,0,0,0,1.9375-.8428,3.6178,3.6178,0,0,0,.8144-2.3584h3.7618a8.745,8.745,0,0,1-1.74,5.335,5.2766,5.2766,0,0,1-4.3242,2.0215A5.0643,5.0643,0,0,1,659.8655,309.2177Z"/><path class="cls-1" d="M722.2776,346.166v6.12h-29.48V312.98h28.6934v6.121H700.0979v10.22h18.98v6.0078h-18.98V346.166Z"/><path class="cls-1" d="M739.4329,351.5566a18.3381,18.3381,0,0,1-6.7109-3.4258l2.5273-5.6709a19.9013,19.9013,0,0,0,5.9238,3.1162,21.5134,21.5134,0,0,0,7.0469,1.2071q4.38,0,6.542-1.4034a4.2538,4.2538,0,0,0,2.1621-3.706,3.5943,3.5943,0,0,0-1.207-2.78,8.4943,8.4943,0,0,0-3.0606-1.7119q-1.853-.6182-5.0537-1.4043a58.6918,58.6918,0,0,1-7.2715-2.1338,11.96,11.96,0,0,1-4.7734-3.3408,8.9991,8.9991,0,0,1-1.9932-6.1484,10.4925,10.4925,0,0,1,1.7686-5.9239,11.9723,11.9723,0,0,1,5.3349-4.24,21.6311,21.6311,0,0,1,8.7315-1.5723,28.2644,28.2644,0,0,1,7.0752.8985,19.575,19.575,0,0,1,6.0078,2.583l-2.3018,5.6718a22.791,22.791,0,0,0-5.3906-2.3027,20.195,20.195,0,0,0-5.4472-.7861q-4.3244,0-6.4288,1.46a4.5059,4.5059,0,0,0-2.1064,3.875,3.5,3.5,0,0,0,1.208,2.751,8.6965,8.6965,0,0,0,3.06,1.6846q1.8529.6182,5.0537,1.4043a53.1194,53.1194,0,0,1,7.1875,2.1055,12.3032,12.3032,0,0,1,4.8008,3.3408,8.8069,8.8069,0,0,1,1.9941,6.0644,10.3535,10.3535,0,0,1-1.7695,5.8965,12.0243,12.0243,0,0,1-5.3623,4.2109,21.82,21.82,0,0,1-8.76,1.5723A30.0018,30.0018,0,0,1,739.4329,351.5566Z"/><path class="cls-1" d="M798.0823,312.98h17.1826a24.65,24.65,0,0,1,11.1739,2.4433,18.0787,18.0787,0,0,1,7.581,6.9063,21.0423,21.0423,0,0,1,0,20.6074,18.0813,18.0813,0,0,1-7.581,6.9072,24.6629,24.6629,0,0,1-11.1739,2.4424H798.0823Zm16.8457,33.13a16.6787,16.6787,0,0,0,7.6084-1.6562,11.8467,11.8467,0,0,0,5.0537-4.7168,15.15,15.15,0,0,0,0-14.207,11.8622,11.8622,0,0,0-5.0537-4.7159,16.6789,16.6789,0,0,0-7.6084-1.6572h-9.5459v26.9531Z"/><path class="cls-1" d="M850.0784,312.98h7.3v39.3066h-7.3Z"/><path class="cls-1" d="M900.4456,332.1836h6.9062v15.6669a21.9712,21.9712,0,0,1-7.0752,3.7061,27.1664,27.1664,0,0,1-8.3105,1.291,22.4044,22.4044,0,0,1-10.8369-2.6113,19.3925,19.3925,0,0,1-7.5811-7.2149,20.99,20.99,0,0,1,0-20.7763,19.3535,19.3535,0,0,1,7.6094-7.2158,22.6947,22.6947,0,0,1,10.9209-2.6114,23.842,23.842,0,0,1,8.9844,1.6289,17.6469,17.6469,0,0,1,6.7949,4.7725l-4.6045,4.4922a14.7736,14.7736,0,0,0-10.8379-4.4922,15.3149,15.3149,0,0,0-7.3838,1.7412,12.6837,12.6837,0,0,0-5.0537,4.8848,14.0546,14.0546,0,0,0-1.8252,7.1875,13.83,13.83,0,0,0,1.8252,7.0752,13.0683,13.0683,0,0,0,5.0537,4.9414,14.8076,14.8076,0,0,0,7.3282,1.7968,15.8161,15.8161,0,0,0,8.0859-2.0214Z"/><path class="cls-1" d="M922.5686,312.98h7.3v39.3066h-7.3Z"/><path class="cls-1" d="M954.07,319.1562H941.0423V312.98h33.3545v6.1767H961.3694v33.13h-7.3Z"/><path class="cls-1" d="M1009.0423,343.1894H989.389l-3.875,9.0967h-7.5235L995.678,312.98h7.1875l17.7442,39.3066h-7.6368Zm-2.4151-5.7275-7.4121-17.1826L991.86,337.4619Z"/><path class="cls-1" d="M1031.222,312.98h7.3v39.3066h-7.3Z"/><path class="cls-1" d="M1058.1458,351.5566a18.3381,18.3381,0,0,1-6.7109-3.4258l2.5273-5.6709a19.9013,19.9013,0,0,0,5.9238,3.1162,21.5134,21.5134,0,0,0,7.0469,1.2071q4.38,0,6.542-1.4034a4.2538,4.2538,0,0,0,2.1621-3.706,3.5943,3.5943,0,0,0-1.207-2.78,8.4943,8.4943,0,0,0-3.0606-1.7119q-1.8529-.6182-5.0537-1.4043a58.6918,58.6918,0,0,1-7.2715-2.1338,11.96,11.96,0,0,1-4.7734-3.3408,8.9991,8.9991,0,0,1-1.9932-6.1484,10.4925,10.4925,0,0,1,1.7686-5.9239,11.9723,11.9723,0,0,1,5.3349-4.24,21.6308,21.6308,0,0,1,8.7315-1.5723,28.2644,28.2644,0,0,1,7.0752.8985,19.575,19.575,0,0,1,6.0078,2.583l-2.3018,5.6718a22.791,22.791,0,0,0-5.3906-2.3027,20.1951,20.1951,0,0,0-5.4473-.7861q-4.3242,0-6.4287,1.46a4.5059,4.5059,0,0,0-2.1064,3.875,3.5,3.5,0,0,0,1.208,2.751,8.6965,8.6965,0,0,0,3.06,1.6846q1.8529.6182,5.0537,1.4043a53.1194,53.1194,0,0,1,7.1875,2.1055,12.3039,12.3039,0,0,1,4.8008,3.3408,8.8069,8.8069,0,0,1,1.9941,6.0644,10.3535,10.3535,0,0,1-1.7695,5.8965,12.0243,12.0243,0,0,1-5.3623,4.2109,21.82,21.82,0,0,1-8.76,1.5723A30.0018,30.0018,0,0,1,1058.1458,351.5566Z"/></g><path class="cls-2" d="M323.8059,272.1757q-12.6929-3.6855-20.39-9.581l9.0078-19.98a61.0655,61.0655,0,0,0,17.5234,8.68,65.7551,65.7551,0,0,0,20.3086,3.2764q11.3,0,16.7051-3.3575,5.4052-3.3559,5.4043-8.9257a8.5344,8.5344,0,0,0-3.1933-6.7969,24.229,24.229,0,0,0-8.1885-4.3408q-4.9982-1.6349-13.5117-3.6026a186.2761,186.2761,0,0,1-21.4551-6.2236,34.8287,34.8287,0,0,1-14.33-9.99q-5.981-6.879-5.9775-18.3428a31.9072,31.9072,0,0,1,5.4043-18.0977q5.4053-8.1065,16.2959-12.8564,10.89-4.7475,26.6132-4.749a88.2366,88.2366,0,0,1,21.4551,2.62,63.4338,63.4338,0,0,1,18.3428,7.5332l-8.1885,20.1445q-15.8877-9.0044-31.7724-9.0068-11.14,0-16.46,3.6025-5.3247,3.605-5.3223,9.499,0,5.8961,6.1416,8.7618,6.1407,2.8682,18.752,5.65a187.4564,187.4564,0,0,1,21.4551,6.2236,35.55,35.55,0,0,1,14.33,9.8271q5.9766,6.7164,5.9776,18.1787a31.3082,31.3082,0,0,1-5.4863,17.9336q-5.4888,8.1065-16.46,12.8565-10.9731,4.7475-26.6953,4.749A93.7682,93.7682,0,0,1,323.8059,272.1757Z"/><path class="cls-2" d="M432.0608,269.3916A43.2039,43.2039,0,0,1,414.7815,253.26a47.1839,47.1839,0,0,1,0-46.84,43.2239,43.2239,0,0,1,17.2793-16.1319,56.3721,56.3721,0,0,1,49.8692,0A43.39,43.39,0,0,1,499.1272,206.42a47.1832,47.1832,0,0,1,0,46.84A43.37,43.37,0,0,1,481.93,269.3916a56.3721,56.3721,0,0,1-49.8692,0Zm41.1074-21.7823q6.3033-6.6327,6.3057-17.7695,0-11.1357-6.3057-17.7695a21.2816,21.2816,0,0,0-16.1318-6.6338,21.5445,21.5445,0,0,0-16.2139,6.6338q-6.3867,6.6327-6.3876,17.7695,0,11.1387,6.3876,17.7695a21.5437,21.5437,0,0,0,16.2139,6.6328A21.2808,21.2808,0,0,0,473.1682,247.6093Z"/><path class="cls-2" d="M611.1487,185.7841v88.1114H586.91V263.414a33.858,33.858,0,0,1-12.1192,8.7617,38.1351,38.1351,0,0,1-15.2314,3.03q-17.3613,0-27.5137-9.99-10.1573-9.9888-10.1543-29.6436V185.7841H547.44v46.0205q0,21.2931,17.8516,21.2911,9.17,0,14.74-5.9776,5.565-5.9766,5.5684-17.7695V185.7841Z"/><path class="cls-2" d="M691.7259,269.6377a26.218,26.218,0,0,1-9.253,4.1757,46.8679,46.8679,0,0,1-11.5468,1.3926q-15.7222,0-24.32-8.0254-8.5986-8.0229-8.5986-23.584V207.4023H624.4143V187.749h13.5928V166.2949h25.55V187.749h21.9453v19.6533H663.5569V243.27q0,5.5694,2.8653,8.5976,2.8637,3.0337,8.1074,3.03a16.4167,16.4167,0,0,0,10.3183-3.2754Z"/><path class="cls-2" d="M786.1438,194.3q10.0723,9.8275,10.0723,29.1523v50.4434h-25.55V227.3828q0-10.48-4.585-15.6407-4.5879-5.1591-13.2666-5.1591-9.6649,0-15.3945,5.9785-5.7348,5.9795-5.7324,17.7695v43.5645H706.139V152.373h25.5488v42.582a33.9851,33.9851,0,0,1,12.2832-7.7793,44.4263,44.4263,0,0,1,15.7226-2.7021Q776.0691,184.4736,786.1438,194.3Z"/><path class="cls-2" d="M897.1829,164.3291a39.3208,39.3208,0,0,1,17.2783,14.4121q6.0571,9.3354,6.06,22.11a39.8168,39.8168,0,0,1-6.06,22.0274,38.6014,38.6014,0,0,1-17.2783,14.4131q-11.2207,4.9965-26.45,4.9951H847.64v31.6084H821.1087V159.2519h49.624Q885.9641,159.2519,897.1829,164.3291Zm-9.7451,51.18q6.2226-5.1576,6.2236-14.6572,0-9.6621-6.2236-14.8222-6.2256-5.1593-18.1787-5.1592H847.64v39.7978h21.6192Q881.2122,220.6679,887.4378,215.5087Z"/><path class="cls-2" d="M938.8645,169.4062a13.868,13.868,0,0,1,0-20.3086,16.2107,16.2107,0,0,1,11.4639-4.0937q7.04,0,11.4648,3.9306a12.6036,12.6036,0,0,1,4.4219,9.8262,13.91,13.91,0,0,1-4.4219,10.5635,16.0214,16.0214,0,0,1-11.4648,4.1767Q943.2855,173.5009,938.8645,169.4062Zm-1.3105,16.3779h25.5488v88.1114H937.554Z"/><path class="cls-2" d="M1066.8538,194.3q10.0722,9.8275,10.0723,29.1523v50.4434h-25.55V227.3828q0-10.48-4.585-15.6407-4.5879-5.1591-13.2666-5.1591-9.6651,0-15.3945,5.9785-5.7349,5.9795-5.7325,17.7695v43.5645H986.8489V185.7841h24.4024v10.3174a33.9034,33.9034,0,0,1,12.6113-8.5976,43.9318,43.9318,0,0,1,16.541-3.03Q1056.7791,184.4736,1066.8538,194.3Z"/><path class="cls-2" d="M1186.8186,237.0459h-66.6562a20.7462,20.7462,0,0,0,8.5156,12.9384q6.7134,4.752,16.7051,4.7491a33.8052,33.8052,0,0,0,12.2021-2.0469,29.5732,29.5732,0,0,0,9.9082-6.4688l13.5938,14.7393q-12.4482,14.2485-36.3584,14.249-14.9047,0-26.3682-5.8144a42.6,42.6,0,0,1-17.6884-16.1319,44.4319,44.4319,0,0,1-6.2227-23.42,45.03,45.03,0,0,1,6.1416-23.3379,43.0254,43.0254,0,0,1,16.8682-16.2139,52.2266,52.2266,0,0,1,47.414-.246,40.6757,40.6757,0,0,1,16.459,15.9677q5.9766,10.4034,5.9776,24.1573Q1187.31,230.6592,1186.8186,237.0459ZM1127.04,208.7128a20.9182,20.9182,0,0,0-7.206,13.43h43.4013a21.1438,21.1438,0,0,0-7.207-13.3486,21.5466,21.5466,0,0,0-14.4121-4.9951A21.9973,21.9973,0,0,0,1127.04,208.7128Z"/><g id="pine"><rect class="cls-1" x="80.6991" y="363.347" width="68.0008" height="62.5365" rx="11.6861"/><path class="cls-2" d="M229.952,335.2986A15.2464,15.2464,0,0,1,214.7,350.55H15.2516A15.2465,15.2465,0,0,1,0,335.2986a15.05,15.05,0,0,1,.5464-4.0436l33.43-80.7206a12.5983,12.5983,0,0,1-15.5309-15.5309L63.8418,135.267a8.1122,8.1122,0,0,1-9.7933-7.9294A15.2748,15.2748,0,0,1,54.85,123.81L108.0849,3.8068a8.1406,8.1406,0,0,1,13.7822,0L175.1021,123.81a15.2748,15.2748,0,0,1,.8014,3.5276,8.1122,8.1122,0,0,1-9.7933,7.9294l45.3966,99.7365a12.5983,12.5983,0,0,1-15.5309,15.5309l33.43,80.7206A15.05,15.05,0,0,1,229.952,335.2986Z"/></g></g></g></svg>