<svg width="0" height="0" class="hidden">
  <symbol viewBox="0 0 511 512" xmlns="http://www.w3.org/2000/svg" id="logout">
    <path d="M361.5 392v40c0 44.113-35.887 80-80 80h-201c-44.113 0-80-35.887-80-80V80c0-44.113 35.887-80 80-80h201c44.113 0 80 35.887 80 80v40c0 11.047-8.953 20-20 20s-20-8.953-20-20V80c0-22.055-17.945-40-40-40h-201c-22.055 0-40 17.945-40 40v352c0 22.055 17.945 40 40 40h201c22.055 0 40-17.945 40-40v-40c0-11.047 8.953-20 20-20s20 8.953 20 20zm136.355-170.355l-44.785-44.786c-7.812-7.812-20.476-7.812-28.285 0-7.812 7.809-7.812 20.473 0 28.282L456.641 237H216.5c-11.047 0-20 8.953-20 20s8.953 20 20 20h240.14l-31.855 31.86c-7.812 7.808-7.812 20.472 0 28.28a19.935 19.935 0 0 0 14.14 5.86 19.937 19.937 0 0 0 14.145-5.86l44.785-44.785c19.497-19.496 19.497-51.214 0-70.71zm0 0"></path>
  </symbol>
  <symbol viewBox="0 0 512 512" xmlns="http://www.w3.org/2000/svg" id="settings">
    <path d="M272.066 512h-32.133c-25.989 0-47.134-21.144-47.134-47.133v-10.871a206.698 206.698 0 0 1-32.097-13.323l-7.704 7.704c-18.659 18.682-48.548 18.134-66.665-.007l-22.711-22.71c-18.149-18.129-18.671-48.008.006-66.665l7.698-7.698A206.714 206.714 0 0 1 58.003 319.2h-10.87C21.145 319.2 0 298.056 0 272.067v-32.134C0 213.944 21.145 192.8 47.134 192.8h10.87a206.755 206.755 0 0 1 13.323-32.097L63.623 153c-18.666-18.646-18.151-48.528.006-66.665l22.713-22.712c18.159-18.184 48.041-18.638 66.664.006l7.697 7.697A206.893 206.893 0 0 1 192.8 58.003v-10.87C192.8 21.144 213.944 0 239.934 0h32.133C298.056 0 319.2 21.144 319.2 47.133v10.871a206.698 206.698 0 0 1 32.097 13.323l7.704-7.704c18.659-18.682 48.548-18.134 66.665.007l22.711 22.71c18.149 18.129 18.671 48.008-.006 66.665l-7.698 7.698a206.714 206.714 0 0 1 13.323 32.097h10.87c25.989 0 47.134 21.144 47.134 47.133v32.134c0 25.989-21.145 47.133-47.134 47.133h-10.87a206.755 206.755 0 0 1-13.323 32.097l7.704 7.704c18.666 18.646 18.151 48.528-.006 66.665l-22.713 22.712c-18.159 18.184-48.041 18.638-66.664-.006l-7.697-7.697a206.893 206.893 0 0 1-32.097 13.323v10.871c0 25.987-21.144 47.131-47.134 47.131zM165.717 409.17a176.812 176.812 0 0 0 45.831 19.025 14.999 14.999 0 0 1 11.252 14.524v22.148c0 9.447 7.687 17.133 17.134 17.133h32.133c9.447 0 17.134-7.686 17.134-17.133v-22.148a14.999 14.999 0 0 1 11.252-14.524 176.812 176.812 0 0 0 45.831-19.025 15 15 0 0 1 18.243 2.305l15.688 15.689c6.764 6.772 17.626 6.615 24.224.007l22.727-22.726c6.582-6.574 6.802-17.438.006-24.225l-15.695-15.695a15 15 0 0 1-2.305-18.242 176.78 176.78 0 0 0 19.024-45.831 15 15 0 0 1 14.524-11.251h22.147c9.447 0 17.134-7.686 17.134-17.133v-32.134c0-9.447-7.687-17.133-17.134-17.133H442.72a15 15 0 0 1-14.524-11.251 176.815 176.815 0 0 0-19.024-45.831 15 15 0 0 1 2.305-18.242l15.689-15.689c6.782-6.774 6.605-17.634.006-24.225l-22.725-22.725c-6.587-6.596-17.451-6.789-24.225-.006l-15.694 15.695a15 15 0 0 1-18.243 2.305 176.812 176.812 0 0 0-45.831-19.025 14.999 14.999 0 0 1-11.252-14.524v-22.15c0-9.447-7.687-17.133-17.134-17.133h-32.133c-9.447 0-17.134 7.686-17.134 17.133v22.148a14.999 14.999 0 0 1-11.252 14.524 176.812 176.812 0 0 0-45.831 19.025 15.002 15.002 0 0 1-18.243-2.305l-15.688-15.689c-6.764-6.772-17.627-6.615-24.224-.007l-22.727 22.726c-6.582 6.574-6.802 17.437-.006 24.225l15.695 15.695a15 15 0 0 1 2.305 18.242 176.78 176.78 0 0 0-19.024 45.831 15 15 0 0 1-14.524 11.251H47.134C37.687 222.8 30 230.486 30 239.933v32.134c0 9.447 7.687 17.133 17.134 17.133h22.147a15 15 0 0 1 14.524 11.251 176.815 176.815 0 0 0 19.024 45.831 15 15 0 0 1-2.305 18.242l-15.689 15.689c-6.782 6.774-6.605 17.634-.006 24.225l22.725 22.725c6.587 6.596 17.451 6.789 24.225.006l15.694-15.695c3.568-3.567 10.991-6.594 18.244-2.304z"></path>
    <path d="M256 367.4c-61.427 0-111.4-49.974-111.4-111.4S194.573 144.6 256 144.6 367.4 194.574 367.4 256 317.427 367.4 256 367.4zm0-192.8c-44.885 0-81.4 36.516-81.4 81.4s36.516 81.4 81.4 81.4 81.4-36.516 81.4-81.4-36.515-81.4-81.4-81.4z"></path>
  </symbol>
  <symbol xmlns="http://www.w3.org/2000/svg" viewBox="0 0 512 512" id="help">
    <circle cx="256" cy="378.5" r="25"></circle>
    <path d="M256 0C114.516 0 0 114.497 0 256c0 141.484 114.497 256 256 256 141.484 0 256-114.497 256-256C512 114.516 397.503 0 256 0zm0 472c-119.377 0-216-96.607-216-216 0-119.377 96.607-216 216-216 119.377 0 216 96.607 216 216 0 119.377-96.607 216-216 216z"></path>
    <path d="M256 128.5c-44.112 0-80 35.888-80 80 0 11.046 8.954 20 20 20s20-8.954 20-20c0-22.056 17.944-40 40-40s40 17.944 40 40-17.944 40-40 40c-11.046 0-20 8.954-20 20v50c0 11.046 8.954 20 20 20s20-8.954 20-20v-32.531c34.466-8.903 60-40.26 60-77.469 0-44.112-35.888-80-80-80z"></path>
  </symbol>
  <symbol xmlns="http://www.w3.org/2000/svg" viewBox="0 0 512.003 512.003" id="discount">
    <path d="M477.958 262.633a15.004 15.004 0 0 1 0-13.263l19.096-39.065c10.632-21.751 2.208-47.676-19.178-59.023l-38.41-20.38a15.005 15.005 0 0 1-7.796-10.729l-7.512-42.829c-4.183-23.846-26.241-39.87-50.208-36.479l-43.053 6.09a15.004 15.004 0 0 1-12.613-4.099l-31.251-30.232c-17.401-16.834-44.661-16.835-62.061 0L193.72 42.859a15.01 15.01 0 0 1-12.613 4.099l-43.053-6.09c-23.975-3.393-46.025 12.633-50.208 36.479l-7.512 42.827a15.008 15.008 0 0 1-7.795 10.73l-38.41 20.38c-21.386 11.346-29.81 37.273-19.178 59.024l19.095 39.064a15.004 15.004 0 0 1 0 13.263L14.95 301.699c-10.632 21.751-2.208 47.676 19.178 59.023l38.41 20.38a15.005 15.005 0 0 1 7.796 10.729l7.512 42.829c3.808 21.708 22.422 36.932 43.815 36.93 2.107 0 4.245-.148 6.394-.452l43.053-6.09a15 15 0 0 1 12.613 4.099l31.251 30.232c8.702 8.418 19.864 12.626 31.03 12.625 11.163-.001 22.332-4.209 31.03-12.625l31.252-30.232c3.372-3.261 7.968-4.751 12.613-4.099l43.053 6.09c23.978 3.392 46.025-12.633 50.208-36.479l7.513-42.827a15.008 15.008 0 0 1 7.795-10.73l38.41-20.38c21.386-11.346 29.81-37.273 19.178-59.024l-19.096-39.065zm-13.923 72.002l-38.41 20.38c-12.246 6.499-20.645 18.057-23.04 31.713l-7.512 42.828a15.038 15.038 0 0 1-16.987 12.342l-43.053-6.09c-13.73-1.945-27.316 2.474-37.281 12.113L266.5 478.152a15.04 15.04 0 0 1-20.997 0l-31.251-30.232c-8.422-8.147-19.432-12.562-30.926-12.562-2.106 0-4.229.148-6.355.449l-43.053 6.09a15.042 15.042 0 0 1-16.987-12.342l-7.513-42.829c-2.396-13.656-10.794-25.215-23.041-31.712l-38.41-20.38a15.037 15.037 0 0 1-6.489-19.969L60.574 275.6c6.088-12.456 6.088-26.742 0-39.198l-19.096-39.065a15.037 15.037 0 0 1 6.489-19.969l38.41-20.38c12.246-6.499 20.645-18.057 23.04-31.713l7.512-42.828a15.038 15.038 0 0 1 16.987-12.342l43.053 6.09c13.725 1.943 27.316-2.474 37.281-12.113l31.252-30.232a15.04 15.04 0 0 1 20.997 0l31.251 30.232c9.965 9.64 23.554 14.056 37.281 12.113l43.053-6.09a15.04 15.04 0 0 1 16.987 12.342l7.512 42.829c2.396 13.656 10.794 25.215 23.041 31.712l38.41 20.38a15.037 15.037 0 0 1 6.489 19.969l-19.096 39.064c-6.088 12.455-6.088 26.743 0 39.198l19.096 39.064a15.039 15.039 0 0 1-6.488 19.972z"></path>
    <path d="M363.886 148.116c-5.765-5.766-15.115-5.766-20.881 0l-194.889 194.89c-5.766 5.766-5.766 15.115 0 20.881a14.72 14.72 0 0 0 10.44 4.325c3.778 0 7.558-1.441 10.44-4.325l194.889-194.889c5.768-5.767 5.768-15.115.001-20.882zm-166.945-25c-29.852 0-54.139 24.287-54.139 54.139s24.287 54.139 54.139 54.139 54.139-24.287 54.139-54.139-24.287-54.139-54.139-54.139zm0 78.747c-13.569 0-24.608-11.039-24.608-24.609 0-13.569 11.039-24.608 24.608-24.608s24.609 11.039 24.609 24.608c-.001 13.57-11.04 24.609-24.609 24.609zm118.12 78.747c-29.852 0-54.139 24.287-54.139 54.139s24.287 54.139 54.139 54.139c29.852 0 54.139-24.287 54.139-54.139s-24.287-54.139-54.139-54.139zm0 78.747c-13.569 0-24.609-11.039-24.609-24.608s11.039-24.608 24.609-24.608c13.569 0 24.608 11.039 24.608 24.608s-11.039 24.608-24.608 24.608z"></path>
  </symbol>
  <symbol viewBox="0 0 512 512" xmlns="http://www.w3.org/2000/svg" id="home">
    <path d="M426 495.983H86c-25.364 0-46-20.635-46-46v-242.02c0-8.836 7.163-16 16-16s16 7.164 16 16v242.02c0 7.72 6.28 14 14 14h340c7.72 0 14-6.28 14-14v-242.02c0-8.836 7.163-16 16-16s16 7.164 16 16v242.02c0 25.364-20.635 46-46 46z"></path>
    <path d="M496 263.958a15.945 15.945 0 0 1-11.313-4.687L285.698 60.284c-16.375-16.376-43.02-16.376-59.396 0L27.314 259.272c-6.248 6.249-16.379 6.249-22.627 0-6.249-6.248-6.249-16.379 0-22.627L203.675 37.656c28.852-28.852 75.799-28.852 104.65 0l198.988 198.988c6.249 6.249 6.249 16.379 0 22.627A15.943 15.943 0 0 1 496 263.958zM320 495.983H192c-8.837 0-16-7.164-16-16v-142c0-27.57 22.43-50 50-50h60c27.57 0 50 22.43 50 50v142c0 8.836-7.163 16-16 16zm-112-32h96v-126c0-9.925-8.075-18-18-18h-60c-9.925 0-18 8.075-18 18z"></path>
  </symbol>
  <symbol viewBox="0 0 512 512" xmlns="http://www.w3.org/2000/svg" id="order">
    <path d="M511.9 126.269a15.996 15.996 0 0 0-9.135-12.768l-240-112a16.002 16.002 0 0 0-13.532 0l-240 112a15.999 15.999 0 0 0-9.135 12.768A89.234 89.234 0 0 0 0 128v272a15.998 15.998 0 0 0 10.058 14.855l240 96a15.996 15.996 0 0 0 11.884 0l240-96A15.998 15.998 0 0 0 512 400V128c0-.084-.087-1.617-.1-1.731zM256 33.656l199.744 93.214-76.914 30.766-203.503-86.332zM136.31 89.512l200.346 84.993L256 206.767 56.256 126.87zM32 151.632l208 83.2v237.535l-208-83.2zm240 320.736V234.832l208-83.2v237.535z"></path>
  </symbol>
  <symbol viewBox="0 0 512 512" xmlns="http://www.w3.org/2000/svg" id="product">
    <path d="M136 512h240c24.813 0 45-20.187 45-45V174.853c0-20.033-7.801-38.867-21.967-53.033-.038-.039-111.275-108.875-111.275-108.875C279.377 4.597 268.102 0 256 0h-90c-41.355 0-75 33.645-75 75 0 19.145 7.22 36.63 19.069 49.897C97.746 138.658 91 156.235 91 174.853V467c0 24.813 20.187 45 45 45zm241.872-368.915c8.466 8.493 13.128 19.773 13.128 31.768V467c0 8.271-6.729 15-15 15H136c-8.271 0-15-6.729-15-15V174.853c0-11.995 4.662-23.274 13.128-31.768l.149-.146A74.384 74.384 0 0 0 166 149.99h47.58A44.892 44.892 0 0 0 211 165c0 24.813 20.187 45 45 45s45-20.187 45-45-20.187-45-45-45h-90c-2.594 0-5.132-.233-7.607-.656 0 0 86.962-85.086 87-85.125C248.881 30.732 253.086 30 256 30s7.119.732 10.606 4.219l111.266 108.866zM271 165c0 8.271-6.729 15-15 15s-15-6.729-15-15 6.729-15 15-15 15 6.729 15 15zM166 30h40.811l-75.389 73.762C124.919 95.957 121 85.929 121 75c0-24.813 20.187-45 45-45z"></path>
    <path d="M316 391H196c-8.284 0-15 6.716-15 15s6.716 15 15 15h120c8.284 0 15-6.716 15-15s-6.716-15-15-15zm-135-45c0 8.284 6.716 15 15 15h120c8.284 0 15-6.716 15-15s-6.716-15-15-15H196c-8.284 0-15 6.716-15 15z"></path>
  </symbol>
  <symbol viewBox="0 0 512 512" xmlns="http://www.w3.org/2000/svg" id="client">
    <path d="M256 0C114.841 0 0 114.841 0 256s114.841 256 256 256 256-114.841 256-256S397.159 0 256 0zm0 482C131.383 482 30 380.617 30 256S131.383 30 256 30s226 101.383 226 226-101.383 226-226 226z"></path>
    <path d="M256 270c57.897 0 105-47.103 105-105S313.897 60 256 60s-105 47.103-105 105 47.103 105 105 105zm0-180c41.355 0 75 33.645 75 75s-33.645 75-75 75-75-33.645-75-75 33.645-75 75-75zm168.649 245.443C404.716 312.918 376.049 300 346 300H166c-30.049 0-58.716 12.918-78.649 35.443l-7.11 8.035 5.306 9.325C120.364 413.99 185.678 452 256 452s135.636-38.01 170.454-99.198l5.306-9.325zM256 422c-55.736 0-107.761-28.197-138.383-74.295C131.069 336.353 148.196 330 166 330h180c17.804 0 34.931 6.353 48.383 17.705C363.761 393.803 311.736 422 256 422z"></path>
  </symbol>
  <symbol xmlns="http://www.w3.org/2000/svg" viewBox="0 0 512 512" id="box">
    <path d="M491.729 112.971L259.261.745a7.503 7.503 0 0 0-6.521 0L20.271 112.971a7.5 7.5 0 0 0-4.239 6.754v272.549a7.5 7.5 0 0 0 4.239 6.754l232.468 112.226a7.504 7.504 0 0 0 6.522 0l232.468-112.226a7.5 7.5 0 0 0 4.239-6.754V119.726a7.502 7.502 0 0 0-4.239-6.755zM256 15.828l215.217 103.897-62.387 30.118a7.434 7.434 0 0 0-1.27-.8L193.805 45.853 256 15.828zm-79.133 38.505l214.904 103.746-44.015 21.249L132.941 75.624l43.926-21.291zm219.932 117.974v78.546l-41.113 19.848v-78.546l41.113-19.848zm84.169 215.261L263.5 492.55V236.658l51.873-25.042a7.5 7.5 0 1 0-6.522-13.508L256 223.623l-20.796-10.04a7.498 7.498 0 0 0-10.015 3.493 7.5 7.5 0 0 0 3.493 10.015l19.818 9.567V492.55L31.032 387.566V131.674l165.6 79.945a7.463 7.463 0 0 0 3.255.748 7.5 7.5 0 0 0 3.266-14.256l-162.37-78.386 74.505-35.968L340.582 192.52c.033.046.07.087.104.132v89.999a7.502 7.502 0 0 0 10.761 6.754l56.113-27.089a7.499 7.499 0 0 0 4.239-6.754v-90.495l69.169-33.392v255.893z"></path>
    <path d="M92.926 358.479L58.811 342.01a7.5 7.5 0 0 0-6.522 13.508l34.115 16.469a7.463 7.463 0 0 0 3.255.748 7.5 7.5 0 0 0 6.759-4.241 7.499 7.499 0 0 0-3.492-10.015zm31.397-20.437l-65.465-31.604a7.501 7.501 0 0 0-6.521 13.509l65.465 31.604a7.477 7.477 0 0 0 3.255.748 7.5 7.5 0 0 0 3.266-14.257z"></path>
  </symbol>
  <symbol xmlns="http://www.w3.org/2000/svg" viewBox="0 0 471.7 471.7" id="lock">
    <path d="M360.8 200.6v-74.7c.2-33.8-13.3-66.3-37.4-90C300.1 12.7 269.6 0 237.3 0h-1.6c-68.9.1-124.9 56.5-124.9 125.9v74.7c-26 3.1-45 24.9-45 51.3v167.8c0 28.5 22.8 52 51.3 52h237.5c28.5 0 51.3-23.5 51.3-52V251.9c-.1-26.3-19.1-48.2-45.1-51.3zm-230.1-74.7h.1c0-58.4 47.1-106.2 105-106.2h.1c27.5-.1 53.9 10.8 73.4 30.2 20.3 20.1 31.6 47.5 31.4 76v74.8h-22v-74.8c.2-22.7-8.8-44.5-24.9-60.5-15.2-15.2-35.8-23.8-57.3-23.8h-.6c-46 0-83.2 37.8-83.2 84.2v74.9h-22v-74.8zm168.1 0v74.8h-126v-74.8c0-35.4 28.2-64.2 63.2-64.2h.6c16.2 0 31.8 6.5 43.3 18 12.2 12.2 19.1 28.9 18.9 46.2zm88 294.1c0 17.5-14.2 31.7-31.7 31.7H117.5c-17.5 0-31.7-14.2-31.7-31.7V252.4c0-17.5 14.2-31.7 31.7-31.7h237.6c17.5 0 31.7 14.2 31.7 31.7V420z"></path>
    <path d="M270.4 330c-4.4-15.5-18.5-26.1-34.6-26.1-19.9 0-36.1 16.1-36.1 36.1 0 16.1 10.6 30.2 26.1 34.6v28c0 5.5 4.5 10 10 10s10-4.5 10-10v-28c19.1-5.5 30.2-25.5 24.6-44.6zm-34.6 26c-8.9 0-16.1-7.2-16.1-16.1 0-8.9 7.2-16.1 16.1-16.1 8.9 0 16.1 7.2 16.1 16.1 0 8.9-7.2 16.1-16.1 16.1z"></path>
  </symbol>
  <symbol viewBox="0 0 512 512" xmlns="http://www.w3.org/2000/svg" id="location">
    <path d="M304 104a48 48 0 1 0-48 48 48.054 48.054 0 0 0 48-48zm-80 0a32 32 0 1 1 32 32 32.036 32.036 0 0 1-32-32z"></path>
    <path d="M251.412 238.554a8 8 0 0 0 9.176 0 254.588 254.588 0 0 0 41.449-38.305C329.489 168.679 344 135.4 344 104a88 88 0 0 0-176 0c0 31.4 14.511 64.679 41.963 96.249a254.588 254.588 0 0 0 41.449 38.305zM256 32a72.081 72.081 0 0 1 72 72c0 57.241-55.483 105.026-72 117.983-16.542-12.941-72-60.632-72-117.983a72.081 72.081 0 0 1 72-72zM149.727 431.583l4.704-15.296 16.003 4.921-4.704 15.296zm31.996 9.811l4.704-15.296 16.004 4.921-4.705 15.297zm32.006 9.872l4.704-15.296 16.003 4.922-4.704 15.296z"></path>
    <path d="M466.353 200.354l-120-36.923-4.706 15.293L436.8 208 256 263.63 75.2 208l95.15-29.276-4.706-15.293-120 36.923A8 8 0 0 0 40 208v216a8 8 0 0 0 5.647 7.646l208 64a8 8 0 0 0 4.706 0l208-64A8 8 0 0 0 472 424V208a8 8 0 0 0-5.647-7.646zM56 218.832l192 59.077v199.259L56 418.092zm208 258.336V277.909l192-59.077v199.26z"></path>
    <path d="M357.7 416.463l16.003-4.921 4.704 15.296-16.004 4.921zm31.99-9.817l16.004-4.921 4.704 15.297-16.003 4.921zm32.024-9.876l16.003-4.921 4.704 15.296-16.003 4.922zM192 339.077a8 8 0 0 0 8-8v-40a8 8 0 0 0-5.647-7.646l-80-24.616A8 8 0 0 0 104 266.462v40a8 8 0 0 0 5.647 7.646l80 24.616a8.01 8.01 0 0 0 2.353.353zm-8-18.832l-64-19.691v-23.26l64 19.691zm224-13.783v-40a8 8 0 0 0-10.353-7.647l-80 24.616a8 8 0 0 0-5.647 7.646v40a8 8 0 0 0 10.353 7.647l80-24.616a8 8 0 0 0 5.647-7.646zm-16-5.908l-64 19.691v-23.26l64-19.691z"></path>
  </symbol>
  <symbol xmlns="http://www.w3.org/2000/svg" viewBox="0 0 478.984 478.984" id="credit-card">
    <path d="M344 319.492h48v16h-48zm-64 0h48v16h-48zm-64 0h48v16h-48z"></path>
    <path d="M471.896 165.916L313.6 7.596a23.897 23.897 0 0 0-17.008-7.08h-.072a23.67 23.67 0 0 0-16.872 7.08l-167.92 167.896H24c-13.255 0-24 10.745-24 24v224c0 13.255 10.745 24 24 24h118.528l23.872 23.896a23.897 23.897 0 0 0 17.008 7.08h.064a23.681 23.681 0 0 0 16.88-7.08l23.92-23.896H408c13.255 0 24-10.745 24-24V239.764l39.856-39.856a23.723 23.723 0 0 0 7.128-16.912 23.907 23.907 0 0 0-7.088-17.08zM370.128 86.772l-88.72 88.72h-67.936L336.16 52.804l33.968 33.968zm-79.152-67.896a7.888 7.888 0 0 1 11.288 0l22.584 22.616-134.008 134h-56.488L290.976 18.876zM189.024 460.108a7.783 7.783 0 0 1-5.6 2.4 8 8 0 0 1-5.696-2.4l-12.568-12.616h36.488l-12.624 12.616zM416 423.492a8 8 0 0 1-8 8H24a8 8 0 0 1-8-8v-112h400v112zm0-128H16v-48h400v48zm0-64H16v-32a8 8 0 0 1 8-8h384a8 8 0 0 1 8 8v32zm44.584-42.936L432 217.14v-17.648c0-13.255-10.745-24-24-24H304l77.408-77.408 79.144 79.144a7.997 7.997 0 0 1 2.4 5.72 7.843 7.843 0 0 1-2.368 5.608z"></path>
    <path d="M76.728 415.708A31.984 31.984 0 0 0 80 412.436c10.579 12.322 28.756 14.663 42.112 5.424A32.529 32.529 0 0 0 136 391.492c0-17.673-14.327-32-32-32a24.263 24.263 0 0 0-4.736.4l-.208.056h-.232A31.588 31.588 0 0 0 80 370.572c-11.56-13.368-31.769-14.833-45.136-3.272-13.368 11.56-14.833 31.769-3.272 45.136 11.56 13.368 31.768 14.833 45.136 3.272zm25.248-40.048a9.675 9.675 0 0 1 2.024-.168c8.837 0 16 7.163 16 16a15.689 15.689 0 0 1-3.144 9.384c-.288.392-.512.8-.84 1.208-.056.064-.136.104-.2.168a15.937 15.937 0 0 1-11.816 5.24c-8.835-.151-15.876-7.435-15.725-16.27a16 16 0 0 1 13.701-15.562zM56 375.492c8.837 0 16 7.163 16 16s-7.163 16-16 16-16-7.163-16-16 7.163-16 16-16z"></path>
  </symbol>
</svg>
